<svg width="300" height="330" viewBox="0 0 300 330" fill="none" xmlns="http://www.w3.org/2000/svg" role="img" aria-label="Mayten Lane logo">
  <path fill-rule="evenodd" clip-rule="evenodd" d="M120 210V330H180V210C180 160.787 139.212 120 90 120C40.7874 120 0 160.787 0 210V330H60V210C60 193.977 73.9771 180 90 180C106.023 180 120 193.977 120 210Z" fill="currentColor"/>
  <path fill-rule="evenodd" clip-rule="evenodd" d="M240 90V330H300V90C300 40.7866 259.212 0 210 0C160.787 0 120 40.7866 120 90V210H180V90C180 73.9768 193.977 60 210 60C226.023 60 240 73.9768 240 90Z" fill="currentColor"/>
</svg>
